<svg width="21" height="22" viewBox="0 0 21 22" fill="none" xmlns="http://www.w3.org/2000/svg">
<path d="M19.5269 16.721C18.8625 15.7015 17.8316 15.0111 16.7435 14.7511C15.8836 14.5445 14.9918 14.6079 14.2202 14.9916L11.9253 11.4608C13.3456 8.96747 16.534 3.37747 17.1059 2.4962C17.8472 1.35646 16.5209 0 16.5209 0L10.4992 9.2677L4.47909 0C4.47909 0 3.15366 1.35646 3.8941 2.49548C4.46682 3.37747 7.65605 8.96675 9.07475 11.4601L6.7806 14.9909C6.00907 14.6071 5.11563 14.5438 4.25737 14.7504C3.16757 15.0103 2.13749 15.7008 1.47314 16.7203C0.280244 18.5541 0.735965 20.7537 2.48685 21.6357C3.26329 22.0281 4.16246 22.0907 5.0289 21.8841C6.11625 21.6227 7.14878 20.9323 7.81232 19.9149C8.10277 19.4656 8.29504 18.9955 8.39322 18.5282V18.5289C8.39403 18.5253 8.39403 18.5217 8.39813 18.5181C8.40385 18.4792 8.41203 18.4404 8.41613 18.3979C8.90866 15.4899 9.83974 14.0045 10.4984 13.2831C11.1586 14.0045 12.0905 15.4891 12.5822 18.3979C12.5872 18.4404 12.5953 18.4792 12.5994 18.5181C12.6027 18.5217 12.6027 18.5253 12.6043 18.5289V18.5282C12.7033 18.9948 12.8948 19.4656 13.1844 19.9149C13.8488 20.9323 14.8813 21.6227 15.9695 21.8841C16.8359 22.0907 17.7351 22.0281 18.5132 21.6357C20.2649 20.7537 20.7189 18.5548 19.5269 16.721ZM6.10889 19.0567C5.73253 19.6348 5.13608 20.0704 4.51509 20.2195C4.23855 20.2857 3.83274 20.326 3.46047 20.1381C2.66685 19.7385 2.53676 18.5642 3.17738 17.5778C3.56029 16.9932 4.14037 16.5677 4.77281 16.4158C5.0469 16.3502 5.45271 16.3106 5.82662 16.4971C6.62106 16.8982 6.75033 18.0696 6.10889 19.0567ZM17.5387 20.1381C17.1665 20.3267 16.7623 20.2857 16.4857 20.2195C15.8639 20.0704 15.2683 19.6348 14.8911 19.0567C14.2505 18.0696 14.3798 16.8982 15.1742 16.4971C15.5481 16.3099 15.9539 16.3502 16.2288 16.4158C16.8596 16.5677 17.4414 16.9932 17.8218 17.5778C18.4624 18.5642 18.3332 19.7385 17.5387 20.1381Z" fill="black"/>
</svg>
